<?xml version="1.0" encoding="utf-8"?>
<!-- Generator: Adobe Illustrator 16.0.0, SVG Export Plug-In . SVG Version: 6.00 Build 0)  -->
<!DOCTYPE svg PUBLIC "-//W3C//DTD SVG 1.1//EN" "http://www.w3.org/Graphics/SVG/1.1/DTD/svg11.dtd">
<svg version="1.1" id="Layer_1" xmlns="http://www.w3.org/2000/svg" xmlns:xlink="http://www.w3.org/1999/xlink" x="0px" y="0px"
	 width="500px" height="200px" viewBox="0 0 500 200" enable-background="new 0 0 500 200" xml:space="preserve">
<g>
	<g>
		<rect x="8.537" y="1.716" opacity="0.5" fill="#231F20" width="320.064" height="197.259"/>
		<g opacity="0.5">
			<g>
				
					<rect x="101.77" y="124.104" fill="none" stroke="#FFFFFF" stroke-width="0.7388" stroke-miterlimit="10" width="28.835" height="28.835"/>
				
					<rect x="84.148" y="124.104" fill="none" stroke="#FFFFFF" stroke-width="0.7388" stroke-miterlimit="10" width="17.622" height="17.622"/>
				
					<rect x="84.148" y="152.938" fill="none" stroke="#FFFFFF" stroke-width="0.7388" stroke-miterlimit="10" width="46.457" height="46.456"/>
				
					<rect x="8.537" y="124.104" fill="none" stroke="#FFFFFF" stroke-width="0.7388" stroke-miterlimit="10" width="75.611" height="75.61"/>
				
					<rect x="8.537" y="1.716" fill="none" stroke="#FFFFFF" stroke-width="0.7388" stroke-miterlimit="10" width="122.387" height="122.387"/>
				
					<rect x="130.604" y="1.716" fill="none" stroke="#FFFFFF" stroke-width="0.7388" stroke-miterlimit="10" width="197.997" height="197.998"/>
			</g>
			<g>
				<path fill="#FFFFFF" d="M327.017,198.734c0,0-0.004-3.112-0.454-8.925c-0.456-5.809-1.355-14.323-3.312-25.025
					c-1.986-10.687-5.006-23.588-10.033-37.877c-5.034-14.261-12.072-29.959-22.279-45.545
					c-10.171-15.559-23.755-30.896-40.983-43.49c-8.589-6.309-18.092-11.846-28.227-16.58c-10.179-4.647-21.019-8.415-32.293-11.255
					c-11.272-2.861-22.997-4.671-34.917-5.709c-2.983-0.234-5.973-0.514-8.983-0.612c-3.007-0.144-6.022-0.305-9.05-0.309
					c-3.03-0.043-6.053-0.115-9.099-0.027c-3.024,0.075-6.065,0.263-9.1,0.522c-12.133,1.087-24.234,3.802-35.696,8.321
					c-11.46,4.503-22.268,10.831-31.688,18.829c-9.46,7.948-17.507,17.556-23.706,28.192c-6.221,10.63-10.596,22.251-13.216,34.143
					c-1.309,5.948-2.217,11.962-2.712,17.982c-0.499,6.023-0.683,12.036-0.39,18.006c0.578,11.88,3.376,23.639,9.118,33.703
					c2.839,5.033,6.407,9.589,10.472,13.549c4.067,3.963,8.641,7.317,13.477,10.082c9.695,5.529,20.334,8.746,30.833,10.337
					c5.272,0.741,10.505,1.29,15.615,0.512c5.107-0.661,10.065-1.952,14.658-3.892c4.591-1.935,8.812-4.55,12.354-7.793
					c3.551-3.231,6.394-7.089,8.425-11.232c2.047-4.144,3.314-8.543,4.02-12.914c0.354-2.188,0.579-4.372,0.675-6.537
					c0.051-1.069,0.096-2.186,0.062-3.203c-0.071-1.058-0.206-2.111-0.376-3.149c-0.694-4.152-2.009-8.106-3.954-11.586
					c-1.936-3.482-4.563-6.45-7.653-8.575c-3.083-2.144-6.572-3.417-10.021-4.05c-3.459-0.589-6.905-0.813-10.08-0.053
					c-3.172,0.693-6.089,2.055-8.309,4.043c-2.243,1.973-3.664,4.561-4.384,7.155c-0.369,1.301-0.543,2.611-0.658,3.885
					c-0.064,1.276-0.084,2.529-0.069,3.737c0.023,2.388,0.392,4.753,1.76,6.383c1.351,1.643,3.362,2.252,5.103,2.474
					c1.772,0.205,3.415,0.156,4.851-0.049c1.434-0.222,2.671-0.683,3.562-1.346c0.896-0.658,1.423-1.478,1.68-2.18
					c0.268-0.704,0.328-1.279,0.367-1.658c0.017-0.382,0.025-0.576,0.025-0.576s-0.007,0.194-0.021,0.576
					c-0.037,0.38-0.093,0.956-0.356,1.664c-0.253,0.706-0.776,1.535-1.673,2.204c-0.892,0.674-2.134,1.146-3.574,1.38
					c-1.444,0.217-3.086,0.278-4.874,0.085c-1.753-0.211-3.801-0.809-5.201-2.482c-1.415-1.661-1.801-4.07-1.843-6.471
					c-0.024-1.215-0.014-2.462,0.042-3.756c0.106-1.287,0.273-2.613,0.637-3.937c0.71-2.637,2.14-5.29,4.417-7.321
					c2.253-2.048,5.215-3.455,8.435-4.183c3.23-0.798,6.746-0.597,10.244-0.025c3.505,0.617,7.075,1.888,10.245,4.058
					c3.177,2.15,5.889,5.171,7.891,8.711c2.012,3.539,3.377,7.552,4.115,11.773c0.182,1.058,0.327,2.128,0.408,3.218
					c0.055,0.553,0.003,1.12,0.003,1.652c-0.01,0.545-0.019,1.091-0.055,1.638c-0.091,2.189-0.313,4.402-0.667,6.621
					c-0.704,4.435-1.98,8.914-4.057,13.146c-2.061,4.232-4.958,8.185-8.578,11.495c-3.611,3.322-7.911,6-12.577,7.979
					c-4.669,1.985-9.696,3.307-14.881,3.992c-2.579,0.334-5.26,0.532-7.91,0.34c-2.648-0.146-5.302-0.429-7.959-0.814
					c-10.603-1.58-21.359-4.798-31.206-10.38c-4.911-2.79-9.566-6.186-13.715-10.207c-4.145-4.018-7.791-8.649-10.695-13.767
					c-5.873-10.236-8.737-22.168-9.353-34.201c-0.31-6.017-0.14-12.098,0.348-18.165c0.484-6.073,1.386-12.147,2.693-18.157
					c2.616-12.017,7.01-23.784,13.283-34.563c6.251-10.783,14.378-20.548,23.954-28.62c9.569-8.084,20.531-14.464,32.134-18.991
					c11.606-4.543,23.839-7.254,36.088-8.322c3.065-0.254,6.124-0.437,9.194-0.505c3.049-0.081,6.107-0.002,9.143,0.05
					c3.041,0.012,6.069,0.181,9.089,0.333c3.023,0.106,6.027,0.395,9.024,0.637c11.976,1.073,23.756,2.922,35.084,5.827
					c11.33,2.884,22.225,6.701,32.453,11.402c10.184,4.788,19.73,10.383,28.354,16.751c8.616,6.376,16.411,13.37,23.215,20.811
					c6.858,7.395,12.76,15.185,17.875,23.006c10.241,15.665,17.186,31.475,22.117,45.806c4.935,14.356,7.863,27.297,9.773,38.008
					c1.881,10.727,2.718,19.251,3.133,25.064C327.035,195.622,327.017,198.734,327.017,198.734z"/>
			</g>
			
				<rect x="84.148" y="141.726" fill="none" stroke="#FFFFFF" stroke-width="0.7388" stroke-miterlimit="10" width="11.307" height="11.332"/>
			
				<rect x="95.455" y="147.391" fill="none" stroke="#FFFFFF" stroke-width="0.7388" stroke-miterlimit="10" width="6.315" height="5.548"/>
		</g>
	</g>
	<g>
		<rect x="130.031" y="1.77" opacity="0.5" fill="#231F20" width="198.175" height="122.138"/>
		<g opacity="0.5">
			<g>
				
					<rect x="252.626" y="77.548" fill="none" stroke="#FFFFFF" stroke-width="0.4574" stroke-miterlimit="10" width="17.854" height="17.854"/>
				
					<rect x="270.479" y="77.548" fill="none" stroke="#FFFFFF" stroke-width="0.4574" stroke-miterlimit="10" width="10.911" height="10.911"/>
				
					<rect x="252.626" y="95.402" fill="none" stroke="#FFFFFF" stroke-width="0.4574" stroke-miterlimit="10" width="28.765" height="28.764"/>
				
					<rect x="281.391" y="77.548" fill="none" stroke="#FFFFFF" stroke-width="0.4574" stroke-miterlimit="10" width="46.815" height="46.816"/>
				
					<rect x="252.428" y="1.77" fill="none" stroke="#FFFFFF" stroke-width="0.4574" stroke-miterlimit="10" width="75.778" height="75.779"/>
				
					<rect x="130.031" y="1.77" fill="none" stroke="#FFFFFF" stroke-width="0.4574" stroke-miterlimit="10" width="122.595" height="122.595"/>
			</g>
			<g>
				<path fill="#FFFFFF" d="M131.012,123.758c0,0-0.012-1.927,0.241-5.529c0.257-3.6,0.775-8.877,1.939-15.519
					c1.183-6.631,2.996-14.644,6.051-23.532c3.054-8.874,7.354-18.662,13.694-28.361c6.3-9.69,14.729-19.259,25.439-27.13
					c5.339-3.943,11.25-7.407,17.556-10.372c6.333-2.911,13.078-5.274,20.093-7.061c7.014-1.799,14.308-2.944,21.723-3.609
					c1.855-0.15,3.715-0.329,5.587-0.395c1.87-0.094,3.745-0.199,5.628-0.207c3.767-0.116,7.545-0.017,11.354,0.283
					c3.792,0.35,7.575,0.941,11.321,1.77c3.74,0.857,7.423,2.001,11.021,3.389c3.606,1.373,7.077,3.108,10.416,5.06
					c3.333,1.963,6.533,4.178,9.479,6.698c2.953,2.509,5.695,5.265,8.195,8.222c2.478,2.977,4.683,6.168,6.634,9.497
					c1.971,3.32,3.578,6.835,4.956,10.414c1.397,3.575,2.448,7.267,3.263,10.985c1.646,7.444,2.188,15.032,1.901,22.486
					c-0.381,7.451-2.154,14.838-5.79,21.176c-3.596,6.358-9.027,11.416-15.112,14.845c-6.097,3.456-12.757,5.448-19.321,6.428
					c-3.271,0.455-6.604,0.79-9.825,0.293c-3.209-0.43-6.324-1.239-9.213-2.474c-2.889-1.229-5.551-2.883-7.784-4.943
					c-2.26-2.033-4.014-4.511-5.308-7.117c-1.291-2.617-2.082-5.391-2.511-8.138c-0.138-0.683-0.19-1.373-0.262-2.056
					c-0.077-0.684-0.142-1.363-0.15-2.042c-0.012-0.685-0.077-1.337-0.046-2.037c0.05-0.675,0.142-1.337,0.253-1.992
					c0.457-2.615,1.307-5.098,2.55-7.29c1.243-2.189,2.923-4.057,4.886-5.393c1.97-1.328,4.169-2.141,6.345-2.503
					c2.165-0.343,4.341-0.492,6.342,0.006c1.993,0.451,3.827,1.323,5.222,2.591c1.409,1.258,2.294,2.901,2.733,4.533
					c0.45,1.644,0.449,3.268,0.421,4.763c-0.026,1.486-0.266,2.978-1.143,4.006c-0.866,1.036-2.135,1.405-3.22,1.536
					c-1.107,0.12-2.124,0.082-3.018-0.052c-0.892-0.145-1.661-0.438-2.213-0.855c-0.556-0.414-0.88-0.927-1.036-1.364
					c-0.163-0.439-0.198-0.795-0.221-1.03c-0.009-0.237-0.013-0.357-0.013-0.357s0.005,0.12,0.016,0.357
					c0.024,0.234,0.062,0.59,0.228,1.027c0.159,0.434,0.485,0.942,1.04,1.349c0.552,0.411,1.317,0.696,2.205,0.833
					c0.89,0.126,1.906,0.157,3.003,0.03c1.078-0.137,2.323-0.514,3.16-1.53c0.848-1.009,1.076-2.474,1.091-3.952
					c0.018-1.497,0.006-3.102-0.45-4.72c-0.445-1.606-1.324-3.209-2.714-4.43c-1.374-1.231-3.18-2.075-5.144-2.504
					c-1.966-0.475-4.098-0.312-6.239,0.042c-2.143,0.373-4.291,1.188-6.207,2.5c-1.909,1.321-3.535,3.156-4.738,5.309
					c-1.202,2.155-2.02,4.602-2.45,7.173c-0.104,0.643-0.189,1.295-0.232,1.949c-0.026,0.631,0.037,1.32,0.052,1.983
					c0.01,0.671,0.075,1.343,0.153,2.017c0.072,0.674,0.125,1.356,0.264,2.029c0.43,2.707,1.215,5.432,2.486,7.994
					c1.276,2.552,2.996,4.97,5.214,6.954c2.19,2.012,4.804,3.628,7.646,4.827c2.842,1.206,5.914,1.997,9.074,2.412
					c3.164,0.48,6.404,0.144,9.668-0.316c6.5-0.985,13.088-2.978,19.091-6.401c5.993-3.397,11.312-8.38,14.826-14.632
					c3.556-6.231,5.287-13.512,5.646-20.868c0.266-7.383-0.291-14.918-1.938-22.279c-0.816-3.679-1.864-7.329-3.256-10.86
					c-1.37-3.535-2.967-7.004-4.922-10.278c-1.935-3.282-4.119-6.427-6.571-9.359c-2.474-2.913-5.188-5.621-8.104-8.095
					c-2.9-2.494-6.053-4.687-9.34-6.633c-3.293-1.935-6.717-3.659-10.278-5.024c-3.554-1.38-7.194-2.521-10.894-3.378
					c-3.705-0.829-7.45-1.423-11.206-1.78c-3.748-0.305-7.524-0.414-11.268-0.308c-1.875,0.002-3.741,0.103-5.603,0.191
					c-1.864,0.061-3.715,0.234-5.562,0.379c-7.381,0.643-14.64,1.764-21.619,3.536c-6.98,1.759-13.692,4.091-19.994,6.969
					c-6.275,2.931-12.159,6.359-17.477,10.266c-10.667,7.798-19.077,17.294-25.374,26.928c-6.32,9.65-10.677,19.37-13.794,28.2
					c-3.113,8.847-4.982,16.834-6.212,23.451c-1.211,6.626-1.768,11.898-2.05,15.494
					C131.015,121.831,131.012,123.758,131.012,123.758z"/>
			</g>
			
				<rect x="274.39" y="88.459" fill="none" stroke="#FFFFFF" stroke-width="0.4574" stroke-miterlimit="10" width="7.001" height="7.017"/>
			
				<rect x="270.479" y="91.967" fill="none" stroke="#FFFFFF" stroke-width="0.4574" stroke-miterlimit="10" width="3.91" height="3.435"/>
		</g>
	</g>
	<g>
		<rect x="130.309" y="2.192" opacity="0.5" fill="#231F20" width="122.04" height="75.215"/>
		<g opacity="0.5">
			<g>
				
					<rect x="165.858" y="19.746" fill="none" stroke="#FFFFFF" stroke-width="0.2817" stroke-miterlimit="10" width="10.994" height="10.996"/>
				
					<rect x="159.139" y="24.022" fill="none" stroke="#FFFFFF" stroke-width="0.2817" stroke-miterlimit="10" width="6.72" height="6.72"/>
				
					<rect x="159.139" y="2.033" fill="none" stroke="#FFFFFF" stroke-width="0.2817" stroke-miterlimit="10" width="17.714" height="17.713"/>
				
					<rect x="130.309" y="1.911" fill="none" stroke="#FFFFFF" stroke-width="0.2817" stroke-miterlimit="10" width="28.83" height="28.831"/>
				
					<rect x="130.309" y="30.742" fill="none" stroke="#FFFFFF" stroke-width="0.2817" stroke-miterlimit="10" width="46.666" height="46.666"/>
				
					<rect x="176.853" y="1.911" fill="none" stroke="#FFFFFF" stroke-width="0.2817" stroke-miterlimit="10" width="75.496" height="75.497"/>
			</g>
			<g>
				<path fill="#FFFFFF" d="M251.745,2.284c0,0,0.007,1.187-0.148,3.405c-0.158,2.217-0.478,5.467-1.194,9.557
					c-0.728,4.084-1.845,9.018-3.726,14.492c-1.88,5.464-4.528,11.492-8.433,17.465c-3.88,5.968-9.07,11.86-15.666,16.708
					c-3.288,2.428-6.928,4.562-10.811,6.387c-3.899,1.793-8.053,3.249-12.373,4.348c-4.319,1.108-8.811,1.813-13.377,2.223
					c-2.284,0.204-4.589,0.333-6.906,0.371c-2.32,0.071-4.646,0.011-6.992-0.174c-9.328-0.778-18.695-4.23-26.011-10.416
					c-1.819-1.545-3.508-3.242-5.047-5.063c-1.526-1.833-2.884-3.798-4.085-5.848c-2.389-4.109-4.075-8.594-5.063-13.177
					c-1.014-4.583-1.348-9.256-1.172-13.847c0.234-4.588,1.326-9.138,3.564-13.041c2.213-3.916,5.558-7.031,9.305-9.143
					c3.754-2.129,7.855-3.356,11.897-3.959c2.015-0.281,4.067-0.487,6.051-0.182c1.976,0.264,3.895,0.763,5.674,1.522
					c3.577,1.475,6.514,4.172,8.064,7.425c0.795,1.611,1.282,3.32,1.547,5.011c0.085,0.42,0.118,0.845,0.162,1.266
					c0.047,0.421,0.087,0.839,0.092,1.258c0.008,0.421,0.047,0.823,0.029,1.254c-0.03,0.416-0.087,0.824-0.155,1.227
					c-0.546,3.206-2.123,6.164-4.576,7.812c-1.212,0.819-2.566,1.32-3.906,1.543c-1.333,0.211-2.673,0.304-3.905-0.001
					c-1.227-0.277-2.357-0.813-3.216-1.593c-0.869-0.774-1.415-1.785-1.686-2.791c-0.277-1.012-0.279-2.012-0.259-2.933
					c0.02-0.914,0.157-1.836,0.704-2.466c0.529-0.64,1.314-0.862,1.98-0.945c0.68-0.071,1.307-0.063,1.857,0.025
					c1.119,0.15,1.838,0.808,1.999,1.368c0.187,0.546,0.126,0.857,0.148,0.853c-0.021,0.004,0.037-0.308-0.154-0.851
					c-0.164-0.556-0.882-1.204-1.996-1.345c-0.547-0.084-1.174-0.087-1.849-0.012c-0.661,0.087-1.432,0.314-1.943,0.942
					c-0.529,0.617-0.66,1.523-0.672,2.432c-0.014,0.921-0.003,1.91,0.277,2.906c0.275,0.989,0.818,1.976,1.674,2.727
					c0.847,0.758,1.959,1.276,3.168,1.54c1.211,0.292,2.524,0.19,3.843-0.028c1.319-0.23,2.642-0.732,3.821-1.541
					c2.383-1.626,3.909-4.532,4.423-7.688c0.064-0.396,0.117-0.798,0.143-1.201c0.015-0.388-0.023-0.813-0.033-1.221
					c-0.006-0.414-0.046-0.827-0.094-1.242c-0.044-0.416-0.078-0.835-0.163-1.25c-0.265-1.667-0.749-3.345-1.533-4.922
					c-1.528-3.183-4.401-5.81-7.921-7.253c-1.75-0.742-3.642-1.229-5.588-1.484c-1.948-0.295-3.943-0.087-5.954,0.196
					c-4.002,0.607-8.059,1.834-11.755,3.943c-3.69,2.093-6.965,5.162-9.129,9.012c-2.188,3.837-3.254,8.321-3.475,12.851
					c-0.164,4.547,0.18,9.187,1.195,13.72c1.957,9.062,6.795,17.73,14.074,23.765c7.202,6.119,16.45,9.56,25.691,10.354
					c2.308,0.188,4.634,0.255,6.939,0.189c2.308-0.032,4.602-0.155,6.875-0.352c4.545-0.396,9.016-1.086,13.313-2.178
					c4.298-1.083,8.432-2.52,12.312-4.292c3.864-1.805,7.487-3.917,10.762-6.322c6.569-4.802,11.748-10.65,15.625-16.583
					c3.892-5.943,6.575-11.928,8.494-17.366c1.917-5.448,3.068-10.367,3.825-14.442c0.747-4.08,1.089-7.327,1.263-9.542
					C251.744,3.471,251.745,2.284,251.745,2.284z"/>
			</g>
			
				<rect x="159.139" y="19.701" fill="none" stroke="#FFFFFF" stroke-width="0.2817" stroke-miterlimit="10" width="4.312" height="4.321"/>
			
				<rect x="163.45" y="19.746" fill="none" stroke="#FFFFFF" stroke-width="0.2817" stroke-miterlimit="10" width="2.408" height="2.116"/>
		</g>
	</g>
	<g>
		<path fill="#FFFFFF" d="M138.519,130.745c-0.635-0.635-0.529-2.114,0.317-2.538c2.854,0.212,7.612,0.317,10.89,0.317
			c2.961,0,8.353-0.105,12.054-0.317c0.952,0.317,0.846,1.798,0.211,2.538l-2.432,0.212c-2.221,0.211-3.489,0.846-3.489,1.797
			c0,1.269,2.22,6.661,5.498,14.168c5.921,13.217,12.159,26.434,18.292,39.438c2.538-5.286,5.393-11.207,8.142-17.128
			c0.951-2.01,1.692-3.808,1.692-4.336s-0.317-1.48-0.846-2.749c-3.701-8.459-7.613-16.917-11.63-25.376
			c-1.586-3.277-3.172-5.497-6.767-5.814l-2.538-0.212c-0.74-0.846-0.634-2.114,0.211-2.538c3.066,0.212,7.084,0.317,11.313,0.317
			c5.287,0,9.199-0.105,11.63-0.317c0.74,0.317,0.846,1.692,0.211,2.538l-2.749,0.212c-4.124,0.317-4.229,1.057-2.22,5.814
			c2.22,5.182,5.181,11.843,8.141,18.398c2.009-4.124,3.912-8.142,6.238-13.852c3.807-8.987,3.278-10.15-0.105-10.361l-3.172-0.212
			c-0.74-1.058-0.529-2.221,0.211-2.538c2.855,0.212,6.027,0.317,9.939,0.317c3.489,0,7.718-0.105,10.15-0.317
			c0.74,0.317,0.846,1.692,0.211,2.538l-3.066,0.212c-4.44,0.317-6.344,5.074-8.67,9.41c-2.22,3.912-6.661,13.11-8.247,16.812
			c-0.529,1.057-0.952,2.114-0.952,2.537s0.211,1.269,0.74,2.538c3.595,8.141,7.295,16.071,10.785,24.106
			c3.278-7.401,6.45-14.803,9.516-22.31c2.115-5.075,7.718-19.138,8.458-21.041c1.375-3.806,3.172-8.353,3.172-9.621
			c0-1.48-1.269-2.326-3.489-2.432l-3.066-0.212c-0.846-0.952-0.74-2.114,0.106-2.538c4.018,0.212,6.873,0.317,10.15,0.317
			c4.018,0,7.084-0.105,9.833-0.317c0.846,0.317,0.952,1.692,0.211,2.538l-2.009,0.212c-5.287,0.528-6.238,3.7-12.583,18.397
			l-7.718,17.868c-4.652,10.785-8.881,21.146-13.216,32.46c-0.317,0.212-0.741,0.317-1.269,0.317s-1.057-0.105-1.48-0.317
			c-3.383-9.41-9.516-22.626-12.793-30.028c-3.806,7.719-10.15,21.253-13.217,30.028c-0.317,0.212-0.74,0.317-1.269,0.317
			s-1.058-0.105-1.586-0.317c-1.797-4.44-5.921-13.957-7.296-17.022c-6.767-14.697-13.322-29.394-20.195-44.091
			c-2.009-4.335-3.277-7.189-7.718-7.612L138.519,130.745z"/>
		<path fill="#FFFFFF" d="M245.837,171.241c-2.749,0-2.855,0.211-2.855,2.854c0,10.679,6.238,19.771,17.552,19.771
			c3.489,0,6.45-1.057,9.728-5.181c1.057-0.317,1.797,0.317,1.903,1.269c-3.489,7.19-11.102,9.833-16.601,9.833
			c-6.873,0-12.265-2.96-15.331-6.978c-3.172-4.124-4.441-9.094-4.441-13.745c0-13.006,8.564-23.896,21.252-23.896
			c9.093,0,15.014,6.237,15.014,12.581c0,1.481-0.211,2.326-0.423,2.75c-0.317,0.634-1.797,0.74-6.237,0.74H245.837z
			 M252.393,168.068c7.824,0,10.15-0.423,10.996-1.057c0.317-0.212,0.635-0.635,0.635-2.009c0-2.961-2.009-6.661-8.142-6.661
			c-6.238,0-11.63,5.709-11.736,9.198c0,0.211,0,0.528,0.74,0.528H252.393z"/>
		<path fill="#FFFFFF" d="M281.892,138.675c0-6.238-0.106-6.872-3.278-8.775l-1.058-0.635c-0.528-0.317-0.528-1.798,0-2.114
			c2.433-0.952,7.508-2.326,11.525-4.441c0.423,0,0.846,0.212,1.058,0.635c-0.212,3.701-0.424,8.459-0.424,13.111v19.983
			c0,1.797,0.424,2.22,1.058,2.22c2.749-1.586,6.979-3.488,12.16-3.488c12.053,0,20.194,9.093,20.194,20.723
			c0,14.063-10.15,23.896-24.318,23.896c-3.912,0-6.873-0.739-8.987-1.374c-2.221-0.74-3.595-1.374-4.44-1.374
			c-0.847,0-1.692,0.846-2.221,1.586c-0.105,0.105-0.212,0.105-0.423,0.105c-0.423,0-0.846-0.212-1.058-0.635
			c0.105-1.48,0.212-3.489,0.212-8.987V138.675z M289.715,183.929c0,3.7,0.847,6.979,2.644,9.199
			c1.798,2.22,4.652,3.488,8.036,3.488c9.938,0,13.851-8.458,13.851-17.551c0-10.891-5.604-19.35-16.071-19.35
			c-3.172,0-5.709,0.74-7.189,1.691c-1.058,0.74-1.27,1.903-1.27,6.027V183.929z"/>
		<path fill="#231F20" d="M355.799,157.072c0.951,2.326,1.691,5.71,1.691,8.564c-0.423,0.74-2.009,0.952-2.537,0.317
			c-1.798-4.652-4.97-7.719-9.305-7.719c-4.124,0-6.767,2.644-6.767,6.45c0,4.335,4.44,6.661,8.141,8.775
			c5.604,3.172,10.785,6.767,10.785,14.274c0,8.035-7.401,12.053-15.226,12.053c-4.97,0-8.67-1.057-11.313-3.172
			c-0.846-2.009-1.48-7.189-1.269-10.679c0.528-0.635,1.902-0.74,2.432-0.105c1.798,5.815,5.181,10.891,11.207,10.891
			c3.807,0,7.085-2.221,7.085-6.768c0-4.863-4.229-7.507-8.142-9.728c-6.133-3.488-10.468-7.189-10.468-13.005
			c0-7.719,6.344-12.053,14.38-12.053C350.935,155.17,354.847,156.227,355.799,157.072z"/>
		<path fill="#231F20" d="M371.341,167.963c0-4.124,0-4.652-2.854-6.556l-0.952-0.634c-0.423-0.423-0.423-1.586,0.105-1.903
			c2.433-0.846,8.459-3.595,10.892-5.182c0.528,0,0.951,0.212,1.057,0.635c-0.212,3.701-0.423,8.776-0.423,13.111v19.032
			c0,7.612,0.211,8.67,4.019,9.198l2.22,0.317c0.74,0.528,0.528,2.326-0.212,2.644c-3.172-0.212-6.237-0.317-9.938-0.317
			c-3.807,0-6.979,0.105-9.939,0.317c-0.739-0.317-0.951-2.115-0.211-2.644l2.221-0.317c3.912-0.528,4.018-1.586,4.018-9.198
			V167.963z M380.116,137.829c0,3.807-2.643,5.498-5.604,5.498c-3.277,0-5.392-2.432-5.392-5.286c0-3.489,2.537-5.71,5.709-5.71
			S380.116,134.869,380.116,137.829z"/>
		<path fill="#231F20" d="M407.183,161.091c-1.798,0-1.903,0.316-1.903,2.537v19.771c0,6.133,0.74,11.737,7.719,11.737
			c1.057,0,2.009-0.212,2.854-0.529c0.952-0.317,2.326-1.479,2.644-1.479c0.846,0,1.269,1.162,1.057,1.797
			c-1.902,2.221-5.709,4.863-11.102,4.863c-9.093,0-10.996-5.074-10.996-11.419v-24.213c0-2.854-0.105-3.065-2.221-3.065h-2.96
			c-0.635-0.423-0.74-1.587-0.317-2.221c3.066-0.952,5.709-2.326,6.767-3.278c1.375-1.269,3.384-4.123,4.44-6.237
			c0.529-0.212,1.798-0.212,2.221,0.528v4.758c0,1.903,0.105,2.009,1.903,2.009h11.736c1.269,0.951,1.058,3.807,0.106,4.441H407.183
			z"/>
		<path fill="#231F20" d="M434.354,171.241c-2.749,0-2.854,0.211-2.854,2.854c0,10.679,6.238,19.771,17.552,19.771
			c3.489,0,6.449-1.057,9.728-5.181c1.057-0.317,1.797,0.317,1.903,1.269c-3.49,7.19-11.103,9.833-16.601,9.833
			c-6.873,0-12.265-2.96-15.331-6.978c-3.172-4.124-4.44-9.094-4.44-13.745c0-13.006,8.564-23.896,21.252-23.896
			c9.093,0,15.014,6.237,15.014,12.581c0,1.481-0.211,2.326-0.423,2.75c-0.317,0.634-1.797,0.74-6.238,0.74H434.354z
			 M440.91,168.068c7.824,0,10.15-0.423,10.996-1.057c0.317-0.212,0.635-0.635,0.635-2.009c0-2.961-2.009-6.661-8.142-6.661
			c-6.238,0-11.631,5.709-11.736,9.198c0,0.211,0,0.528,0.74,0.528H440.91z"/>
		<path fill="#231F20" d="M491.45,157.072c0.951,2.326,1.691,5.71,1.691,8.564c-0.423,0.74-2.009,0.952-2.537,0.317
			c-1.798-4.652-4.97-7.719-9.305-7.719c-4.124,0-6.767,2.644-6.767,6.45c0,4.335,4.44,6.661,8.141,8.775
			c5.604,3.172,10.785,6.767,10.785,14.274c0,8.035-7.401,12.053-15.226,12.053c-4.97,0-8.67-1.057-11.313-3.172
			c-0.846-2.009-1.48-7.189-1.269-10.679c0.528-0.635,1.902-0.74,2.432-0.105c1.798,5.815,5.181,10.891,11.207,10.891
			c3.808,0,7.085-2.221,7.085-6.768c0-4.863-4.229-7.507-8.142-9.728c-6.133-3.488-10.468-7.189-10.468-13.005
			c0-7.719,6.344-12.053,14.38-12.053C486.586,155.17,490.498,156.227,491.45,157.072z"/>
	</g>
</g>
</svg>
